<svg width="33" height="32" viewBox="0 0 33 32" fill="none" xmlns="http://www.w3.org/2000/svg">
<g clip-path="url(#clip0_10_13013)">
<path d="M28.0481 25.8352C15.0945 32 7.05541 26.8421 1.90932 23.7093C1.59088 23.5119 1.04965 23.7555 1.51924 24.2948C3.23366 26.3736 8.85218 31.3841 16.186 31.3841C23.5248 31.3841 27.8908 27.3796 28.4369 26.6811C28.9794 25.9885 28.5962 25.6064 28.048 25.8352H28.0481ZM31.6861 23.8261C31.3382 23.3731 29.5708 23.2887 28.4586 23.4253C27.3446 23.558 25.6725 24.2388 25.8179 24.6476C25.8925 24.8007 26.0448 24.7321 26.81 24.6633C27.5774 24.5867 29.7271 24.3154 30.175 24.9009C30.625 25.4906 29.4894 28.2993 29.282 28.7522C29.0816 29.2052 29.3585 29.322 29.7349 29.0203C30.1062 28.7188 30.7783 27.9377 31.2293 26.8325C31.6772 25.7212 31.9503 24.171 31.6859 23.8261H31.6861Z" fill="#FF9900"/>
<path fill-rule="evenodd" clip-rule="evenodd" d="M19.3383 13.256C19.3383 14.8735 19.3792 16.2225 18.5616 17.659C17.9017 18.827 16.8564 19.5452 15.6885 19.5452C14.0942 19.5452 13.1658 18.3306 13.1658 16.5378C13.1658 12.999 16.3366 12.3567 19.3383 12.3567V13.256ZM23.5253 23.3761C23.2508 23.6213 22.8537 23.6389 22.5442 23.4753C21.1661 22.3308 20.9208 21.7994 20.1617 20.7073C17.8842 23.0315 16.2725 23.7264 13.3177 23.7264C9.82555 23.7264 7.10425 21.5716 7.10425 17.2561C7.10425 13.8867 8.93216 11.5917 11.5306 10.4705C13.7848 9.47768 16.9324 9.30252 19.3383 9.02815V8.49086C19.3383 7.50391 19.4141 6.33602 18.8361 5.48348C18.328 4.71847 17.3586 4.40311 16.506 4.40311C14.9235 4.40311 13.5103 5.21478 13.1658 6.89658C13.0956 7.2704 12.8212 7.63833 12.4475 7.6558L8.41813 7.22375C8.0795 7.14768 7.7058 6.87331 7.79922 6.3535C8.7277 1.47168 13.1365 0 17.084 0C19.1046 0 21.744 0.537295 23.3383 2.06732C25.3588 3.95346 25.1661 6.47031 25.1661 9.2091V15.6794C25.1661 17.624 25.972 18.4765 26.7311 19.5277C26.9996 19.9014 27.0581 20.3512 26.7194 20.6314C25.8726 21.3379 24.366 22.6519 23.5368 23.3878L23.5251 23.3761" fill="black"/>
<path d="M28.0481 25.8352C15.0945 32 7.05541 26.8421 1.90932 23.7093C1.59088 23.5119 1.04965 23.7555 1.51924 24.2948C3.23366 26.3736 8.85218 31.3841 16.186 31.3841C23.5248 31.3841 27.8908 27.3796 28.4369 26.6811C28.9794 25.9885 28.5962 25.6064 28.048 25.8352H28.0481ZM31.6861 23.8261C31.3382 23.3731 29.5708 23.2887 28.4586 23.4253C27.3446 23.558 25.6725 24.2388 25.8179 24.6476C25.8925 24.8007 26.0448 24.7321 26.81 24.6633C27.5774 24.5867 29.7271 24.3154 30.175 24.9009C30.625 25.4906 29.4894 28.2993 29.282 28.7522C29.0816 29.2052 29.3585 29.322 29.7349 29.0203C30.1062 28.7188 30.7783 27.9377 31.2293 26.8325C31.6772 25.7212 31.9503 24.171 31.6859 23.8261H31.6861Z" fill="#FF9900"/>
<path fill-rule="evenodd" clip-rule="evenodd" d="M19.3383 13.256C19.3383 14.8735 19.3792 16.2225 18.5616 17.659C17.9017 18.827 16.8564 19.5452 15.6885 19.5452C14.0942 19.5452 13.1658 18.3306 13.1658 16.5378C13.1658 12.999 16.3366 12.3567 19.3383 12.3567V13.256ZM23.5253 23.3761C23.2508 23.6213 22.8537 23.6389 22.5442 23.4753C21.1661 22.3308 20.9208 21.7994 20.1617 20.7073C17.8842 23.0315 16.2725 23.7264 13.3177 23.7264C9.82555 23.7264 7.10425 21.5716 7.10425 17.2561C7.10425 13.8867 8.93216 11.5917 11.5306 10.4705C13.7848 9.47768 16.9324 9.30252 19.3383 9.02815V8.49086C19.3383 7.50391 19.4141 6.33602 18.8361 5.48348C18.328 4.71847 17.3586 4.40311 16.506 4.40311C14.9235 4.40311 13.5103 5.21478 13.1658 6.89658C13.0956 7.2704 12.8212 7.63833 12.4475 7.6558L8.41813 7.22375C8.0795 7.14768 7.7058 6.87331 7.79922 6.3535C8.7277 1.47168 13.1365 0 17.084 0C19.1046 0 21.744 0.537295 23.3383 2.06732C25.3588 3.95346 25.1661 6.47031 25.1661 9.2091V15.6794C25.1661 17.624 25.972 18.4765 26.7311 19.5277C26.9996 19.9014 27.0581 20.3512 26.7194 20.6314C25.8726 21.3379 24.366 22.6519 23.5368 23.3878L23.5251 23.3761" fill="black"/>
</g>
<defs>
<clipPath id="clip0_10_13013">
<rect width="32" height="32" fill="white" transform="translate(0.5)"/>
</clipPath>
</defs>
</svg>
