<svg width="60" height="60" viewBox="0 0 60 60" fill="none" xmlns="http://www.w3.org/2000/svg">
<path d="M20.3953 27.8778C20.1142 28.1566 19.8911 28.4883 19.7388 28.8538C19.5865 29.2193 19.5081 29.6113 19.5081 30.0073C19.5081 30.4032 19.5865 30.7952 19.7388 31.1607C19.8911 31.5262 20.1142 31.8579 20.3953 32.1367C20.9573 32.6954 21.7174 33.0089 22.5098 33.0089C23.3022 33.0089 24.0623 32.6954 24.6243 32.1367C24.9054 31.8579 25.1285 31.5262 25.2808 31.1607C25.4331 30.7952 25.5115 30.4032 25.5115 30.0073C25.5115 29.6113 25.4331 29.2193 25.2808 28.8538C25.1285 28.4883 24.9054 28.1566 24.6243 27.8778C24.0623 27.3191 23.3022 27.0056 22.5098 27.0056C21.7174 27.0056 20.9573 27.3191 20.3953 27.8778ZM27.8035 35.316C27.2449 35.8779 26.9314 36.6381 26.9314 37.4305C26.9314 38.2228 27.2449 38.983 27.8035 39.5449C28.0823 39.8261 28.4141 40.0492 28.7796 40.2015C29.1451 40.3537 29.5371 40.4321 29.933 40.4321C30.329 40.4321 30.721 40.3537 31.0865 40.2015C31.452 40.0492 31.7837 39.8261 32.0625 39.5449C32.6211 38.983 32.9347 38.2228 32.9347 37.4305C32.9347 36.6381 32.6211 35.8779 32.0625 35.316C31.7837 35.0349 31.452 34.8117 31.0865 34.6595C30.721 34.5072 30.329 34.4288 29.933 34.4288C29.5371 34.4288 29.1451 34.5072 28.7796 34.6595C28.4141 34.8117 28.0823 35.0349 27.8035 35.316ZM54.797 5.32323C51.5344 2.0337 47.1288 0.12925 42.4973 0.00634015C37.8659 -0.116569 33.3655 1.55154 29.933 4.66339C26.5164 1.58787 22.0523 -0.0635264 17.4567 0.0480177C12.8611 0.159562 8.48239 2.02559 5.21899 5.26324C1.97683 8.53197 0.110777 12.919 0.00477552 17.5217C-0.101226 22.1244 1.56089 26.5927 4.64913 30.0073C2.34021 32.5885 0.825172 35.7812 0.285822 39.2022C-0.253528 42.6232 0.205722 46.1272 1.60846 49.2937C3.0112 52.4601 5.29784 55.1545 8.19399 57.0536C11.0901 58.9527 14.4727 59.9757 17.9359 60C22.3755 60.0047 26.6558 58.3461 29.933 55.3511C33.3513 58.4354 37.8218 60.0923 42.4245 59.9807C47.0273 59.8691 51.4122 57.9976 54.677 54.7513C57.915 51.4786 59.7756 47.0895 59.8761 42.4868C59.9765 37.8841 58.3091 33.418 55.2169 30.0073C58.3091 26.5965 59.9765 22.1304 59.8761 17.5277C59.7756 12.925 57.915 8.53587 54.677 5.26324L54.797 5.32323ZM50.418 9.52221C52.5038 11.6679 53.7125 14.5155 53.8068 17.5064C53.9012 20.4973 52.8744 23.4155 50.9279 25.6883L34.252 9.01234C36.5447 7.11 39.4539 6.11176 42.4316 6.20568C45.4092 6.29959 48.2498 7.47918 50.418 9.52221ZM9.44797 50.4923C7.36218 48.3466 6.15353 45.499 6.05919 42.5081C5.96486 39.5172 6.99166 36.599 8.93809 34.3262L25.734 51.1221C23.4159 53.0357 20.4746 54.0292 17.4709 53.913C14.4672 53.7969 11.6114 52.5792 9.44797 50.4923ZM50.418 50.4923C48.1408 52.6702 45.1112 53.8858 41.9601 53.8858C38.809 53.8858 35.7794 52.6702 33.5021 50.4923L9.50796 26.4981C7.27349 24.2503 6.01929 21.2096 6.01929 18.0401C6.01929 14.8707 7.27349 11.83 9.50796 9.5822C11.7558 7.34773 14.7964 6.09353 17.9659 6.09353C21.1354 6.09353 24.1761 7.34773 26.4239 9.5822L50.418 33.5764C52.6525 35.8242 53.9067 38.8649 53.9067 42.0343C53.9067 45.2038 52.6525 48.2445 50.418 50.4923ZM35.2417 27.8778C34.9606 28.1566 34.7375 28.4883 34.5852 28.8538C34.4329 29.2193 34.3545 29.6113 34.3545 30.0073C34.3545 30.4032 34.4329 30.7952 34.5852 31.1607C34.7375 31.5262 34.9606 31.8579 35.2417 32.1367C35.8037 32.6954 36.5639 33.0089 37.3562 33.0089C38.1486 33.0089 38.9088 32.6954 39.4707 32.1367C39.7518 31.8579 39.9749 31.5262 40.1272 31.1607C40.2795 30.7952 40.3579 30.4032 40.3579 30.0073C40.3579 29.6113 40.2795 29.2193 40.1272 28.8538C39.9749 28.4883 39.7518 28.1566 39.4707 27.8778C38.9088 27.3191 38.1486 27.0056 37.3562 27.0056C36.5639 27.0056 35.8037 27.3191 35.2417 27.8778ZM27.8035 20.4696C27.2449 21.0315 26.9314 21.7917 26.9314 22.584C26.9314 23.3764 27.2449 24.1366 27.8035 24.6985C28.0823 24.9797 28.4141 25.2028 28.7796 25.3551C29.1451 25.5073 29.5371 25.5857 29.933 25.5857C30.329 25.5857 30.721 25.5073 31.0865 25.3551C31.452 25.2028 31.7837 24.9797 32.0625 24.6985C32.6211 24.1366 32.9347 23.3764 32.9347 22.584C32.9347 21.7917 32.6211 21.0315 32.0625 20.4696C31.7837 20.1884 31.452 19.9653 31.0865 19.813C30.721 19.6608 30.329 19.5824 29.933 19.5824C29.5371 19.5824 29.1451 19.6608 28.7796 19.813C28.4141 19.9653 28.0823 20.1884 27.8035 20.4696Z" fill="#69F0AE"/>
</svg>
