<svg width="104" height="48" viewBox="0 0 104 48" fill="none" xmlns="http://www.w3.org/2000/svg">
<rect width="48" height="48" rx="24" fill="white"/>
<path d="M24 32.25C24 32.25 14.625 27 14.625 20.625C14.625 19.498 15.0155 18.4059 15.73 17.5343C16.4445 16.6628 17.4388 16.0657 18.5439 15.8447C19.649 15.6237 20.7966 15.7923 21.7913 16.322C22.7861 16.8517 23.5665 17.7097 24 18.75C24.4335 17.7097 25.2139 16.8517 26.2087 16.322C27.2034 15.7923 28.351 15.6237 29.4561 15.8447C30.5612 16.0657 31.5555 16.6628 32.27 17.5343C32.9845 18.4059 33.375 19.498 33.375 20.625C33.375 27 24 32.25 24 32.25Z" stroke="#191C1F" stroke-width="1.5" stroke-linecap="round" stroke-linejoin="round"/>
<rect x="56" width="48" height="48" rx="24" fill="white"/>
<path d="M76.25 32.25C76.25 32.6642 75.9142 33 75.5 33C75.0858 33 74.75 32.6642 74.75 32.25C74.75 31.8358 75.0858 31.5 75.5 31.5C75.9142 31.5 76.25 31.8358 76.25 32.25Z" fill="#191C1F" stroke="#191C1F" stroke-width="1.5"/>
<path d="M85.25 33.75C86.0784 33.75 86.75 33.0784 86.75 32.25C86.75 31.4216 86.0784 30.75 85.25 30.75C84.4216 30.75 83.75 31.4216 83.75 32.25C83.75 33.0784 84.4216 33.75 85.25 33.75Z" fill="#191C1F"/>
<path d="M71.9656 18.75H88.7844L86.3094 27.4125C86.2211 27.7269 86.032 28.0036 85.7711 28.2C85.5103 28.3965 85.1922 28.5019 84.8656 28.5H75.8844C75.5578 28.5019 75.2397 28.3965 74.9789 28.2C74.718 28.0036 74.5289 27.7269 74.4406 27.4125L71.0469 15.5438C71.002 15.387 70.9073 15.2491 70.777 15.1509C70.6468 15.0528 70.4881 14.9998 70.325 15H68.75" stroke="#191C1F" stroke-width="1.5" stroke-linecap="round" stroke-linejoin="round"/>
</svg>
