<svg width="30" height="30" viewBox="0 0 30 30" fill="none" xmlns="http://www.w3.org/2000/svg">
<path d="M25.7591 14.8602H29" stroke="#333333" stroke-width="1.5"/>
<path d="M1 14.8602H18.8512" stroke="#333333" stroke-width="1.5"/>
<path d="M11.8569 5.63245H29" stroke="#333333" stroke-width="1.5"/>
<path d="M1 5.63245H4.96053" stroke="#333333" stroke-width="1.5"/>
<path d="M16.727 24.088H29" stroke="#333333" stroke-width="1.5"/>
<path d="M1 24.088H9.81908" stroke="#333333" stroke-width="1.5"/>
<path d="M8.40872 8.9079C10.3163 8.9079 11.8627 7.36151 11.8627 5.45395C11.8627 3.54638 10.3163 2 8.40872 2C6.50116 2 4.95477 3.54638 4.95477 5.45395C4.95477 7.36151 6.50116 8.9079 8.40872 8.9079Z" stroke="#333333" stroke-width="1.5"/>
<path d="M22.3051 18.3141C24.2127 18.3141 25.7591 16.7678 25.7591 14.8602C25.7591 12.9526 24.2127 11.4062 22.3051 11.4062C20.3976 11.4062 18.8512 12.9526 18.8512 14.8602C18.8512 16.7678 20.3976 18.3141 22.3051 18.3141Z" stroke="#333333" stroke-width="1.5"/>
<path d="M13.273 27.5419C15.1806 27.5419 16.727 25.9955 16.727 24.088C16.727 22.1804 15.1806 20.634 13.273 20.634C11.3655 20.634 9.81909 22.1804 9.81909 24.088C9.81909 25.9955 11.3655 27.5419 13.273 27.5419Z" stroke="#333333" stroke-width="1.5"/>
</svg>
