<svg width="40" height="40" viewBox="0 0 40 40" fill="none" xmlns="http://www.w3.org/2000/svg">
<path fill-rule="evenodd" clip-rule="evenodd" d="M27.2727 14.5454C27.2727 18.562 24.0165 21.8182 20 21.8182C15.9834 21.8182 12.7273 18.562 12.7273 14.5454C12.7273 10.5288 15.9834 7.27271 20 7.27271C24.0165 7.27271 27.2727 10.5288 27.2727 14.5454ZM23.6364 14.5454C23.6364 16.5538 22.0084 18.1818 20 18.1818C17.9916 18.1818 16.3636 16.5538 16.3636 14.5454C16.3636 12.5371 17.9916 10.9091 20 10.9091C22.0084 10.9091 23.6364 12.5371 23.6364 14.5454Z" fill="#37474F"/>
<path fill-rule="evenodd" clip-rule="evenodd" d="M20 0C8.95431 0 0 8.95431 0 20C0 31.0456 8.95431 40 20 40C31.0456 40 40 31.0456 40 20C40 8.95431 31.0456 0 20 0ZM3.63636 20C3.63636 23.8004 4.93191 27.2982 7.10542 30.0758C10.0954 26.1616 14.8114 23.6364 20.1173 23.6364C25.3542 23.6364 30.0167 26.0965 33.0118 29.9242C35.1145 27.1715 36.3636 23.7316 36.3636 20C36.3636 10.9626 29.0375 3.63636 20 3.63636C10.9626 3.63636 3.63636 10.9626 3.63636 20ZM20 36.3636C16.0905 36.3636 12.5012 34.9925 9.68667 32.7051C11.9882 29.4204 15.8019 27.2727 20.1173 27.2727C24.3789 27.2727 28.1515 29.3675 30.4615 32.5835C27.6253 34.9438 23.9784 36.3636 20 36.3636Z" fill="#37474F" fill-opacity="0.9"/>
</svg>
