<svg width="61" height="64" viewBox="0 0 61 64" fill="none" xmlns="http://www.w3.org/2000/svg">
<path d="M14.079 48.9705C14.0601 48.9705 14.041 48.9896 14.0218 48.9896C12.8616 49.581 11.6233 50.0045 10.3439 50.2474C8.07572 50.8437 5.71311 50.9925 3.38802 50.6856C1.2918 49.8663 1.63487 45.6928 3.97877 44.9497C3.97877 44.9497 22.1403 41.3098 23.0168 41.0621C23.1359 41.0296 23.2569 41.0041 23.379 40.9858" stroke="#69F0AE" stroke-width="3" stroke-linecap="round" stroke-linejoin="round"/>
<path d="M27.9662 18.5442C32.4634 18.5442 36.109 14.8407 36.109 10.2721C36.109 5.70355 32.4634 2 27.9662 2C23.469 2 19.8234 5.70355 19.8234 10.2721C19.8234 14.8407 23.469 18.5442 27.9662 18.5442Z" stroke="#69F0AE" stroke-width="3" stroke-linecap="round" stroke-linejoin="round"/>
<path d="M50.8495 35.5692C55.3467 35.5692 58.9923 31.8656 58.9923 27.2971C58.9923 22.7285 55.3467 19.025 50.8495 19.025C46.3523 19.025 42.7067 22.7285 42.7067 27.2971C42.7067 31.8656 46.3523 35.5692 50.8495 35.5692Z" stroke="#69F0AE" stroke-width="3" stroke-linecap="round" stroke-linejoin="round"/>
<path d="M33.4793 16.4973L29.2106 30.6757" stroke="#69F0AE" stroke-width="3" stroke-linecap="round" stroke-linejoin="round"/>
<path d="M43.4843 23.7769L34.4131 35.9736" stroke="#69F0AE" stroke-width="3" stroke-linecap="round" stroke-linejoin="round"/>
<path d="M5.05205 56.234C5.05205 56.234 23.1749 41.8181 23.4496 40.8572C23.7242 39.8962 25.1443 33.1334 27.2835 31.5028C29.2622 29.9945 32.0986 30.3554 33.7634 33.5404C35.4281 36.7253 33.9589 43.8172 32.3822 46.2174C30.8054 48.6176 11.3272 60.7149 9.81525 61.6044C8.30327 62.4939 2.51239 62.3371 5.05205 56.234Z" stroke="#69F0AE" stroke-width="3" stroke-linecap="round" stroke-linejoin="round"/>
</svg>
