<svg width="44" height="44" viewBox="0 0 44 44" fill="none" xmlns="http://www.w3.org/2000/svg">
<path d="M12.5 40.25C13.8807 40.25 15 39.1307 15 37.75C15 36.3693 13.8807 35.25 12.5 35.25C11.1193 35.25 10 36.3693 10 37.75C10 39.1307 11.1193 40.25 12.5 40.25Z" fill="#37474F"/>
<path d="M28.75 40.25C30.1307 40.25 31.25 39.1307 31.25 37.75C31.25 36.3693 30.1307 35.25 28.75 35.25C27.3693 35.25 26.25 36.3693 26.25 37.75C26.25 39.1307 27.3693 40.25 28.75 40.25Z" fill="#37474F"/>
<path d="M6.60937 15.25H34.6406L30.5156 29.6875C30.3684 30.2115 30.0533 30.6726 29.6186 31.0001C29.1838 31.3275 28.6536 31.5032 28.1094 31.5H13.1406C12.5964 31.5032 12.0662 31.3275 11.6314 31.0001C11.1967 30.6726 10.8816 30.2115 10.7344 29.6875L5.07812 9.90625C5.00338 9.64493 4.84549 9.41509 4.62839 9.25156C4.41129 9.08803 4.1468 8.99971 3.875 9H1.25" stroke="#37474F" stroke-width="2" stroke-linecap="round" stroke-linejoin="round"/>
<rect x="24" width="20" height="20" rx="10" fill="#37474F"/>
<path d="M31.0049 14V13.22V12.818C31.0049 12.374 31.0869 11.992 31.2509 11.672C31.4149 11.348 31.6329 11.066 31.9049 10.826C32.1769 10.586 32.4749 10.374 32.7989 10.19C33.1269 10.002 33.4509 9.826 33.7709 9.662C34.0949 9.494 34.3929 9.322 34.6649 9.146C34.9369 8.966 35.1549 8.766 35.3189 8.546C35.4869 8.326 35.5709 8.064 35.5709 7.76C35.5709 7.372 35.4329 7.056 35.1569 6.812C34.8849 6.564 34.5149 6.44 34.0469 6.44C33.5509 6.44 33.1409 6.582 32.8169 6.866C32.4969 7.15 32.3069 7.55 32.2469 8.066H30.8309C30.8389 7.538 30.9649 7.058 31.2089 6.626C31.4529 6.194 31.8149 5.85 32.2949 5.594C32.7749 5.334 33.3729 5.204 34.0889 5.204C34.7089 5.204 35.2429 5.312 35.6909 5.528C36.1429 5.74 36.4909 6.038 36.7349 6.422C36.9829 6.802 37.1069 7.246 37.1069 7.754C37.1069 8.198 37.0249 8.578 36.8609 8.894C36.7009 9.21 36.4869 9.484 36.2189 9.716C35.9549 9.944 35.6629 10.146 35.3429 10.322C35.0269 10.498 34.7089 10.664 34.3889 10.82C34.0729 10.972 33.7809 11.132 33.5129 11.3C33.2489 11.464 33.0349 11.652 32.8709 11.864C32.7109 12.076 32.6309 12.33 32.6309 12.626V12.752H37.1249V14H31.0049Z" fill="white"/>
</svg>
